<?xml version="1.0" encoding="UTF-8" standalone="no"?>
<!-- Created with Inkscape (http://www.inkscape.org/) -->

<svg
   xmlns:sketch="http://www.bohemiancoding.com/sketch/ns"
   xmlns:dc="http://purl.org/dc/elements/1.1/"
   xmlns:cc="http://creativecommons.org/ns#"
   xmlns:rdf="http://www.w3.org/1999/02/22-rdf-syntax-ns#"
   xmlns:svg="http://www.w3.org/2000/svg"
   xmlns="http://www.w3.org/2000/svg"
   xmlns:sodipodi="http://sodipodi.sourceforge.net/DTD/sodipodi-0.dtd"
   xmlns:inkscape="http://www.inkscape.org/namespaces/inkscape"
   width="202mm"
   height="42mm"
   viewBox="0 0 202 42"
   version="1.1"
   id="svg8"
   inkscape:version="0.92.1 r15371"
   sodipodi:docname="cc.svg">
  <defs
     id="defs2" />
  <sodipodi:namedview
     id="base"
     pagecolor="#ffffff"
     bordercolor="#666666"
     borderopacity="1.0"
     inkscape:pageopacity="0.0"
     inkscape:pageshadow="2"
     inkscape:zoom="0.98994949"
     inkscape:cx="400"
     inkscape:cy="115.53288"
     inkscape:document-units="mm"
     inkscape:current-layer="layer1"
     showgrid="false"
     inkscape:window-width="1537"
     inkscape:window-height="835"
     inkscape:window-x="309"
     inkscape:window-y="153"
     inkscape:window-maximized="0" />
  <metadata
     id="metadata5">
    <rdf:RDF>
      <cc:Work
         rdf:about="">
        <dc:format>image/svg+xml</dc:format>
        <dc:type
           rdf:resource="http://purl.org/dc/dcmitype/StillImage" />
        <dc:title></dc:title>
      </cc:Work>
    </rdf:RDF>
  </metadata>
  <g
     inkscape:label="Layer 1"
     inkscape:groupmode="layer"
     id="layer1"
     transform="translate(0,-255)">
    <g
       id="g4620"
       transform="translate(-4.314301,249.19702)">
      <g
         style="fill:none;fill-rule:evenodd;stroke:none;stroke-width:1"
         transform="matrix(0.08782649,0,0,0.08782649,139.88966,6.3930064)"
         id="Page-1"
         sketch:type="MSPage">
        <g
           id="amex"
           sketch:type="MSLayerGroup">
          <rect
             style="fill:#2557d6"
             id="Rectangle-1"
             sketch:type="MSShapeGroup"
             x="1"
             y="0"
             width="750"
             height="471"
             rx="40" />
          <path
             style="fill:#ffffff"
             inkscape:connector-curvature="0"
             d="m 1.002688,221.18508 h 36.024161 l 8.12273,-19.51002 h 18.185017 l 8.101446,19.51002 h 70.880328 v -14.91599 l 6.32685,14.97957 h 36.79572 l 6.32685,-15.20212 v 15.13854 h 176.15122 l -0.0825,-32.02567 h 3.40819 c 2.38654,0.0822 3.0836,0.30203 3.0836,4.22575 v 27.79992 h 91.10602 v -7.45535 c 7.3485,3.92107 18.77832,7.45535 33.81854,7.45535 h 38.32822 l 8.20255,-19.51002 h 18.18501 l 8.02164,19.51002 h 73.86016 v -18.53239 l 11.18506,18.53239 h 59.18711 V 98.67789 h -58.57518 v 14.46825 l -8.20255,-14.46825 h -60.10501 v 14.46825 l -7.53208,-14.46825 h -81.1874 c -13.59021,0 -25.53618,1.88901 -35.18607,7.15332 v -7.15332 h -56.02636 v 7.15332 c -6.1406,-5.42592 -14.5081,-7.15332 -23.81213,-7.15332 H 180.90796 l -13.73389,31.64151 -14.1037,-31.64151 h -64.471 v 14.46825 L 81.516924,98.67789 H 26.533518 L 0.999997,156.92445 v 64.26063 h 0.0026 z M 228.39922,203.51436 h -21.6145 l -0.0798,-68.79372 -30.57264,68.79372 H 157.62 L 126.96754,134.6597 v 68.85466 H 84.084427 L 75.982981,183.92222 H 32.083524 L 23.8996,203.51436 H 1.000047 L 38.756241,115.67692 H 70.08183 l 35.8592,83.16394 v -83.16394 h 34.41186 l 27.5928,59.58714 25.34728,-59.58714 h 35.1036 v 87.83744 h 0.003 z M 68.777214,165.69287 54.346265,130.67606 39.997794,165.69287 Z m 245.642256,37.82149 h -70.43336 v -87.83744 h 70.43336 v 18.29129 h -49.34831 v 15.83269 h 48.16435 v 18.00516 h -48.16435 v 17.54153 h 49.34831 z m 99.25581,-64.18115 c 0,14.00461 -9.38651,21.24005 -14.85665,23.41254 4.61343,1.74859 8.55374,4.83776 10.42945,7.39706 2.97717,4.36883 3.49067,8.27135 3.49067,16.11616 v 17.25539 h -21.26597 l -0.0798,-11.07704 c 0,-5.28552 0.50817,-12.88658 -3.32838,-17.11233 -3.08094,-3.08918 -7.77686,-3.75947 -15.36746,-3.75947 h -22.63351 v 31.94884 h -21.08238 v -87.83744 h 48.49427 c 10.77532,0 18.71447,0.28348 25.53087,4.20721 6.67005,3.92373 10.6689,9.65168 10.6689,19.44908 z m -26.65251,13.04311 c -2.89737,1.75124 -6.32418,1.80952 -10.42944,1.80952 h -25.61335 v -19.51001 h 25.96188 c 3.67425,0 7.50813,0.16427 9.99843,1.58433 2.73507,1.27965 4.4272,4.00321 4.4272,7.76532 0,3.83895 -1.60965,6.92813 -4.34472,8.35084 z m 60.46631,51.13804 h -21.51339 v -87.83744 h 21.51339 z m 249.73948,0 h -29.87824 l -39.96447,-65.92709 v 65.92709 h -42.93898 l -8.20521,-19.59214 h -43.79835 l -7.96044,19.59214 h -24.6715 c -10.24853,0 -23.22415,-2.25727 -30.57265,-9.71527 -7.40969,-7.45799 -11.26486,-17.56006 -11.26486,-33.53316 0,-13.02698 2.30405,-24.93593 11.36597,-34.34652 6.81638,-7.01025 17.49061,-10.24249 32.01999,-10.24249 h 20.41192 v 18.82117 h -19.98356 c -7.69438,0 -12.03909,1.13924 -16.22418,5.20338 -3.59443,3.69853 -6.06078,10.69024 -6.06078,19.89682 0,9.41058 1.87836,16.19564 5.79739,20.62804 3.24589,3.47599 9.14439,4.53044 14.69434,4.53044 h 9.46898 l 29.71594,-69.0772 h 31.59165 l 35.69691,83.08181 v -83.08181 h 32.10247 l 37.0618,61.17411 v -61.17411 h 21.59586 z m -128.15805,-37.82149 -14.59058,-35.01681 -14.51077,35.01681 z"
             id="Path"
             sketch:type="MSShapeGroup" />
          <path
             style="fill:#ffffff"
             inkscape:connector-curvature="0"
             d="m 750.95644,343.76716 c -5.12159,7.458 -15.1014,11.23866 -28.6118,11.23866 H 681.62723 V 336.1661 h 40.55246 c 4.02279,0 6.83767,-0.52723 8.53246,-2.17514 1.46864,-1.35913 2.49295,-3.33292 2.49295,-5.7306 0,-2.55929 -1.02431,-4.59137 -2.57543,-5.81008 -1.52983,-1.34059 -3.75673,-1.94995 -7.42832,-1.94995 -19.79733,-0.67028 -44.49543,0.60936 -44.49543,-27.19319 0,-12.74351 8.12539,-26.15731 30.25072,-26.15731 h 41.99715 v -17.48058 h -39.01997 c -11.7757,0 -20.32944,2.80834 -26.38756,7.1745 v -7.1745 h -57.71582 c -9.22953,0 -20.06338,2.27846 -25.18765,7.1745 v -7.1745 H 499.57751 v 7.1745 c -8.20255,-5.89221 -22.04285,-7.1745 -28.43088,-7.1745 h -67.98297 v 7.1745 c -6.48914,-6.25782 -20.92009,-7.1745 -29.71594,-7.1745 H 297.3633 l -17.41078,18.76288 -16.30666,-18.76288 H 149.99149 v 122.59196 h 111.51527 l 17.94024,-19.05962 16.89997,19.05962 68.73857,0.0609 v -28.83847 h 6.75785 c 9.12045,0.14041 19.87715,-0.22519 29.3674,-4.31053 v 33.08541 h 56.69683 v -31.95148 h 2.73506 c 3.49068,0 3.83389,0.14307 3.83389,3.6164 v 28.33243 h 172.23487 c 10.93495,0 22.36477,-2.78714 28.69427,-7.8448 v 7.8448 h 54.63221 c 11.36864,0 22.47121,-1.58698 30.91852,-5.65112 v -22.83763 z m -341.50343,-47.1545 c 0,24.40606 -18.28612,29.44518 -36.71591,29.44518 h -26.30775 v 29.46901 h -40.9808 l -25.96188,-29.08486 -26.98087,29.08486 h -83.5154 v -87.85863 h 84.80046 l 25.94058,28.79872 26.81858,-28.79872 h 67.37104 c 16.73234,0 35.53195,4.61256 35.53195,28.94444 z m -167.6252,40.43389 H 189.9892 v -17.48059 h 46.28865 V 301.64028 H 189.9892 v -15.9731 h 52.86027 l 23.06185,25.60359 z m 83.52669,10.06013 -32.3712,-35.78778 32.3712,-34.6512 z m 47.8727,-39.06551 h -27.24693 v -22.37399 h 27.4917 c 7.61191,0 12.8958,3.08918 12.8958,10.77238 0,7.5984 -5.03912,11.60161 -13.14057,11.60161 z m 142.74333,-40.37295 h 70.36951 v 18.16942 h -49.37226 v 15.9731 h 48.16702 v 17.92568 h -48.16702 v 17.48059 l 49.37226,0.0794 v 18.23037 h -70.36951 v -87.85863 z m -27.05329,47.02908 c 4.69325,1.72475 8.52979,4.81657 10.32835,7.37587 2.97717,4.28934 3.40819,8.29254 3.49332,16.03668 v 17.417 H 481.5714 v -10.99227 c 0,-5.2855 0.51083,-13.11176 -3.4082,-17.1971 -3.08094,-3.14746 -7.77685,-3.89988 -15.46857,-3.89988 h -22.5324 v 32.08925 h -21.18614 v -87.85863 h 48.67784 c 10.67423,0 18.44843,0.46894 25.36858,4.14627 6.65409,4.00321 10.83917,9.48742 10.83917,19.51001 -0.003,14.02315 -9.39449,21.17912 -14.94444,23.3728 z m -11.91825,-11.10708 c -2.8202,1.66646 -6.30822,1.80953 -10.41082,1.80953 h -25.61334 v -19.73257 h 25.96187 c 3.75407,0 7.5108,0.0794 10.06229,1.58698 2.73241,1.42271 4.366,4.14363 4.366,7.90309 0,3.75947 -1.63359,6.78771 -4.366,8.43297 z m 190.3364,5.59638 c 4.10528,4.23106 6.30556,9.5722 6.30556,18.61452 0,18.90066 -11.85817,27.72308 -33.12147,27.72308 h -41.06595 v -18.83971 h 40.901 c 3.99884,0 6.83501,-0.52723 8.61227,-2.17515 1.45001,-1.35913 2.49029,-3.33291 2.49029,-5.73059 0,-2.55931 -1.12542,-4.59137 -2.57276,-5.81009 -1.61232,-1.34059 -3.83655,-1.94994 -7.50814,-1.94994 -19.71751,-0.67029 -44.41029,0.60935 -44.41029,-27.19321 0,-12.7435 8.04025,-26.15729 30.14429,-26.15729 h 42.26853 v 18.6993 h -38.67676 c -3.83387,0 -6.32684,0.14307 -8.44732,1.58698 -2.30937,1.42271 -3.16608,3.53426 -3.16608,6.3214 0,3.31438 1.96085,5.569 4.61344,6.54397 2.22424,0.77097 4.61343,0.99616 8.2052,0.99616 l 11.35002,0.30468 c 11.44578,0.27818 19.30245,2.24932 24.07817,7.06589 z M 751,285.66718 h -38.42665 c -3.83655,0 -6.38538,0.14307 -8.53247,1.58698 -2.22423,1.42271 -3.08093,3.53427 -3.08093,6.32142 0,3.31436 1.87836,5.56898 4.61076,6.54395 2.22424,0.77097 4.61344,0.99617 8.12539,0.99617 l 11.42717,0.30468 c 11.53092,0.28349 19.22796,2.25727 23.92121,7.07119 0.85404,0.67029 1.36754,1.42271 1.95552,2.17513 z"
             id="path13"
             sketch:type="MSShapeGroup" />
        </g>
      </g>
      <g
         style="fill:none;fill-rule:evenodd;stroke:none;stroke-width:1"
         transform="matrix(0.08782649,0,0,0.08782649,72.351098,6.3930064)"
         id="Page-1-8">
        <g
           id="mastercard">
          <rect
             style="fill:#f4f4f4"
             id="Rectangle-1-2"
             x="0"
             y="0"
             width="750"
             height="471"
             rx="40" />
          <g
             id="mark"
             transform="translate(125.72,41.850862)">
            <g
               style="fill:#000000"
               id="text"
               transform="translate(25.142679,328.36002)">
              <path
                 inkscape:connector-curvature="0"
                 d="m 467.71556,51.93269 c -1.21296,0.02967 -2.21216,0.432205 -2.9976,1.20761 -0.78544,0.775432 -1.19193,1.74581 -1.21947,2.911136 0.0275,1.156514 0.43403,2.124368 1.21947,2.903564 0.78545,0.779212 1.78464,1.184273 2.9976,1.215183 1.1852,-0.03091 2.17179,-0.435971 2.95977,-1.215183 0.78795,-0.779197 1.19697,-1.747051 1.22703,-2.903564 -0.0294,-1.165326 -0.43718,-2.135704 -1.22325,-2.911136 -0.78608,-0.775406 -1.77393,-1.177942 -2.96355,-1.20761 z m 0,7.328945 c -0.92417,-0.02271 -1.68628,-0.33565 -2.28635,-0.938832 -0.60007,-0.603166 -0.91071,-1.360287 -0.93194,-2.271367 0.0212,-0.915056 0.33188,-1.671757 0.93194,-2.270106 0.60007,-0.598324 1.36218,-0.908323 2.28635,-0.929998 0.90482,0.02168 1.65517,0.331675 2.25104,0.929998 0.59585,0.598349 0.90482,1.35505 0.92689,2.270106 -0.0221,0.91108 -0.33104,1.668202 -0.92689,2.271367 -0.59587,0.603182 -1.34622,0.916126 -2.25104,0.938832 z m 0.24213,-5.138338 h -1.76552 v 3.825993 h 0.81718 v -1.433485 h 0.37328 l 1.1602,1.433485 h 0.9786 l -1.25099,-1.44358 c 0.39072,-0.04899 0.69128,-0.175601 0.90167,-0.379824 0.21039,-0.204202 0.31674,-0.464568 0.31906,-0.781098 -0.003,-0.377708 -0.136,-0.674669 -0.39977,-0.890881 -0.26378,-0.216188 -0.64168,-0.326391 -1.13371,-0.33061 z m -0.0101,0.716743 c 0.21921,2.22e-4 0.39114,0.0427 0.51578,0.127449 0.12463,0.08477 0.18811,0.210533 0.19043,0.377299 -0.002,0.171625 -0.0658,0.300335 -0.19043,0.386132 -0.12464,0.08582 -0.29657,0.128721 -0.51578,0.128711 h -0.93825 v -1.019592 z"
                 id="path3078" />
              <path
                 inkscape:connector-curvature="0"
                 d="M 9.3433172,57.542803 H 0.58817592 V 16.660004 H 9.1716476 v 4.981515 c 0,0 7.5390874,-6.08827 12.0168604,-6.012168 8.706422,0.147981 13.905221,7.558159 13.905221,7.558159 0,0 4.21726,-7.558159 13.733563,-7.558159 14.072507,0 16.136923,12.883235 16.136923,12.883235 V 57.371027 H 56.552411 V 31.948109 c 0,0 0.03018,-7.729935 -9.098479,-7.729935 -9.439957,0 -10.300169,7.729935 -10.300169,7.729935 V 57.371027 H 28.398621 V 31.776333 c 0,0 -0.841071,-8.073496 -8.755138,-8.073496 -10.2784717,0 -10.4718354,8.245272 -10.4718354,8.245272 z"
                 id="path3006" />
              <path
                 inkscape:connector-curvature="0"
                 d="m 275.5969,15.623773 c -4.47778,-0.07609 -12.01616,6.011824 -12.01616,6.011824 v -4.97067 h -8.59256 v 40.873685 h 8.76038 l -0.16782,-25.592234 c 0,0 0.19371,-8.228474 10.47218,-8.228474 1.9089,0 3.39144,0.462665 4.5648,1.175497 v -0.03353 l 2.853,-7.959789 c -1.72163,-0.725062 -3.6795,-1.239014 -5.87382,-1.276307 v 0 z"
                 id="path3008" />
              <path
                 inkscape:connector-curvature="0"
                 d="m 398.92774,15.623773 c -4.47778,-0.07609 -12.01616,6.011824 -12.01616,6.011824 v -4.97067 h -8.59256 v 40.873685 h 8.76039 l -0.16783,-25.592234 c 0,0 0.19371,-8.228474 10.47218,-8.228474 1.90891,0 3.39144,0.462665 4.5648,1.175497 v -0.03353 l 2.853,-7.959789 c -1.72163,-0.725009 -3.6795,-1.23896 -5.87382,-1.276253 v -5.4e-5 z"
                 id="path3013" />
              <path
                 inkscape:connector-curvature="0"
                 d="m 93.273529,15.455845 c -13.102664,0 -20.036666,11.783841 -20.071681,21.629131 -0.03598,10.091299 7.893748,21.729889 20.440893,21.729889 7.319939,0 13.333299,-5.407283 13.333299,-5.407283 l -0.0159,4.164615 h 8.61786 v -40.92337 h -8.64821 v 5.154698 c 0,0 -5.64714,-6.34768 -13.656218,-6.34768 z m 1.678235,8.329231 c 7.039666,0 12.754576,6.127218 12.754576,13.669342 0,7.542124 -5.71491,13.635757 -12.754576,13.635757 -7.039669,0 -12.721016,-6.093633 -12.721016,-13.635757 0,-7.542124 5.681347,-13.669342 12.721016,-13.669342 z"
                 id="path3015" />
              <path
                 inkscape:connector-curvature="0"
                 d="m 344.59758,15.455845 c -13.10267,0 -20.03667,11.783841 -20.07168,21.629131 -0.036,10.091299 7.89374,21.729889 20.44089,21.729889 7.31994,0 13.3333,-5.407283 13.3333,-5.407283 l -0.0159,4.164615 h 8.61786 v -40.92337 h -8.64821 v 5.154698 c 0,0 -5.64714,-6.34768 -13.65622,-6.34768 z m 1.67823,8.329231 c 7.03967,0 12.75458,6.127218 12.75458,13.669342 0,7.542124 -5.71491,13.635757 -12.75458,13.635757 -7.03967,0 -12.72101,-6.093633 -12.72101,-13.635757 0,-7.542124 5.68134,-13.669342 12.72101,-13.669342 z"
                 id="path3020" />
              <path
                 inkscape:connector-curvature="0"
                 d="m 427.34225,15.455845 c -13.10267,0 -20.03667,11.783841 -20.07168,21.629131 -0.036,10.091299 7.89374,21.729889 20.44089,21.729889 7.31994,0 13.3333,-5.407283 13.3333,-5.407283 l -0.0159,4.164615 h 8.61786 V 0.49407462 h -8.64821 V 21.803525 c 0,0 -5.64714,-6.34768 -13.65622,-6.34768 z m 1.67823,8.329231 c 7.03967,0 12.75458,6.127218 12.75458,13.669342 0,7.542124 -5.71491,13.635757 -12.75458,13.635757 -7.03967,0 -12.72101,-6.093633 -12.72101,-13.635757 0,-7.542124 5.68134,-13.669342 12.72101,-13.669342 z"
                 id="path3022" />
              <path
                 inkscape:connector-curvature="0"
                 d="m 141.87212,58.917008 c -8.92654,0 -17.16694,-5.496841 -17.16694,-5.496841 l 3.77673,-5.840403 c 0,0 7.79707,3.607309 13.39021,3.607309 3.63401,0 9.71182,-1.174206 9.78515,-4.809738 0.0776,-3.842387 -10.21433,-4.981525 -10.21433,-4.981525 0,0 -15.3644,-0.209725 -15.3644,-12.883224 0,-7.970461 7.6734,-13.055011 17.51028,-13.055011 5.68385,0 16.30859,4.981514 16.30859,4.981514 l -4.29174,6.699281 c 0,0 -8.20345,-3.279449 -12.53187,-3.435533 -3.65499,-0.131796 -8.06845,1.619309 -8.06845,4.809749 0,8.668107 25.57873,-0.675388 25.57873,16.834084 0,11.487149 -10.41739,13.570338 -18.71196,13.570338 z"
                 id="path3024" />
              <path
                 inkscape:connector-curvature="0"
                 d="M 174.80215,4.8092072 V 16.698512 h -7.61918 v 8.597916 h 7.61918 V 45.85082 c 0,0 -0.67432,13.904442 14.26499,13.904442 4.13039,0 12.21755,-3.056291 12.21755,-3.056291 L 197.82752,47.7652 c 0,0 -3.21605,2.745045 -6.84719,2.653263 -6.90413,-0.174441 -6.71294,-4.601229 -6.71294,-4.601229 V 25.296428 h 14.23143 V 16.698512 H 184.26739 V 4.8092072 Z"
                 id="path3026" />
              <path
                 inkscape:connector-curvature="0"
                 d="m 226.65959,15.959629 c -14.0495,0 -21.06917,11.57935 -21.0115,21.629131 0.0593,10.335082 6.39221,21.964988 21.85061,21.964988 6.61637,0 15.90967,-5.81031 15.90967,-5.81031 l -3.9942,-6.952221 c 0,0 -6.34162,4.500471 -11.91547,4.500471 -11.15953,0 -11.88189,-10.915322 -11.88189,-10.915322 h 29.87257 c 0,0 2.2286,-24.416737 -18.82979,-24.416737 z m -1.27546,8.02696 c 0.33129,-0.01881 0.68644,0 1.0405,0 10.51332,0 10.43862,9.94134 10.43862,9.94134 h -21.24644 c 0,0 -0.5026,-9.357133 9.76732,-9.94134 z"
                 id="path3034" />
              <path
                 inkscape:connector-curvature="0"
                 d="m 315.5162,46.686 4.00583,8.016643 c 0,0 -6.34901,4.129783 -13.47413,4.129783 -14.75134,0 -22.94246,-11.108926 -22.94246,-21.620641 0,-16.520551 13.03526,-21.377718 21.84996,-21.377718 8.00097,0 14.93079,4.615641 14.93079,4.615641 l -4.49137,8.016642 c 0,0 -2.72296,-4.25125 -10.68221,-4.25125 -7.94595,0 -12.13886,6.855118 -12.13886,13.361075 0,7.290818 4.88036,13.482531 12.26025,13.482531 5.78939,0 10.6822,-4.372706 10.6822,-4.372706 z"
                 id="path3037" />
            </g>
            <path
               style="fill:#f79f1a"
               inkscape:connector-curvature="0"
               d="m 498.78798,236.78128 v -5.52066 h -1.4405 l -1.65704,3.79663 -1.65705,-3.79663 h -1.4405 v 5.52066 h 1.01682 v -4.16405 l 1.55348,3.58937 h 1.05449 l 1.55348,-3.59879 v 4.17347 z m -9.12317,0 v -4.57857 h 1.84535 v -0.93267 h -4.69811 v 0.93267 h 1.84535 v 4.57857 z"
               id="path3057" />
            <path
               style="fill:#f79f1a"
               inkscape:connector-curvature="0"
               d="m 499.07668,154.7098 c 0,85.42536 -69.07697,154.6763 -154.28775,154.6763 -85.21078,0 -154.28777,-69.25094 -154.28777,-154.6763 0,-85.425367 69.07699,-154.67630798 154.28777,-154.67630798 85.21078,0 154.28775,69.25094098 154.28775,154.67630798 z"
               id="path2997" />
            <path
               style="fill:#ea001b"
               inkscape:connector-curvature="0"
               d="m 308.73932,154.7098 c 0,85.42536 -69.07697,154.6763 -154.28775,154.6763 -85.210777,0 -154.28776873,-69.25094 -154.28776873,-154.6763 0,-85.425367 69.07699173,-154.67630798 154.28776873,-154.67630798 85.21078,0 154.28775,69.25094098 154.28775,154.67630798 z"
               id="path2995" />
            <path
               style="fill:#ff5f01"
               inkscape:connector-curvature="0"
               d="m 249.62056,32.947481 c -35.99923,28.316201 -59.10741,72.317859 -59.10741,121.747829 0,49.42996 23.10818,93.46521 59.10741,121.78141 35.99924,-28.3162 59.10741,-72.35145 59.10741,-121.78141 0,-49.42997 -23.10817,-93.431628 -59.10741,-121.747829 z"
               id="path2999" />
          </g>
        </g>
      </g>
      <g
         style="fill:none;fill-rule:evenodd;stroke:none;stroke-width:1"
         transform="matrix(0.08782649,0,0,0.08782649,4.7247025,6.3930064)"
         id="Page-1-5"
         sketch:type="MSPage">
        <g
           id="visa"
           sketch:type="MSLayerGroup">
          <rect
             style="fill:#0e4595"
             id="Rectangle-1-0"
             sketch:type="MSShapeGroup"
             x="0"
             y="0"
             width="750"
             height="471"
             rx="40" />
          <path
             style="fill:#ffffff"
             inkscape:connector-curvature="0"
             d="m 278.1975,334.2275 33.361,-195.762 h 53.359 l -33.384,195.762 z"
             id="Shape"
             sketch:type="MSShapeGroup" />
          <path
             style="fill:#ffffff"
             inkscape:connector-curvature="0"
             d="m 524.3075,142.6875 c -10.572,-3.966 -27.136,-8.222 -47.823,-8.222 -52.724,0 -89.864,26.551 -90.18,64.604 -0.297,28.129 26.514,43.821 46.754,53.185 20.769,9.595 27.752,15.715 27.653,24.283 -0.132,13.122 -16.586,19.117 -31.923,19.117 -21.357,0 -32.703,-2.967 -50.226,-10.276 l -6.876,-3.112 -7.489,43.824 c 12.463,5.464 35.509,10.199 59.438,10.444 56.089,0 92.501,-26.247 92.915,-66.882 0.201,-22.269 -14.015,-39.217 -44.799,-53.188 -18.651,-9.056 -30.073,-15.099 -29.952,-24.269 0,-8.137 9.668,-16.838 30.557,-16.838 17.449,-0.271 30.088,3.534 39.936,7.5 l 4.782,2.259 7.233,-42.429"
             id="path13-7"
             sketch:type="MSShapeGroup" />
          <path
             style="fill:#ffffff"
             inkscape:connector-curvature="0"
             d="m 661.6145,138.4655 h -41.231 c -12.773,0 -22.331,3.486 -27.941,16.234 l -79.245,179.403 h 56.031 c 0,0 9.162,-24.122 11.234,-29.418 6.123,0 60.554,0.084 68.336,0.084 1.596,6.853 6.492,29.334 6.492,29.334 h 49.512 z m -65.417,126.407 c 4.413,-11.279 21.259,-54.723 21.259,-54.723 -0.315,0.521 4.38,-11.334 7.075,-18.684 l 3.607,16.878 c 0,0 10.217,46.729 12.352,56.528 h -44.293 z"
             id="Path-1"
             sketch:type="MSShapeGroup" />
          <path
             style="fill:#ffffff"
             inkscape:connector-curvature="0"
             d="m 232.9025,138.4655 -52.24,133.495 -5.566,-27.129 c -9.725,-31.274 -40.025,-65.156 -73.899,-82.119 l 47.767,171.203 56.455,-0.065 84.004,-195.385 h -56.521"
             id="path16"
             sketch:type="MSShapeGroup" />
          <path
             style="fill:#f2ae14"
             inkscape:connector-curvature="0"
             d="m 131.9195,138.4655 h -86.041 l -0.681,4.073 c 66.939,16.204 111.232,55.363 129.618,102.414 l -18.709,-89.96 c -3.23,-12.396 -12.598,-16.095 -24.187,-16.527"
             id="path18"
             sketch:type="MSShapeGroup" />
        </g>
      </g>
    </g>
  </g>
</svg>
